<?xml version="1.0" encoding="utf-8"?>
<!-- Generator: Adobe Illustrator 16.0.0, SVG Export Plug-In . SVG Version: 6.00 Build 0)  -->
<!DOCTYPE svg PUBLIC "-//W3C//DTD SVG 1.1//EN" "http://www.w3.org/Graphics/SVG/1.1/DTD/svg11.dtd">
<svg version="1.1" id="Layer_1" xmlns:sketch="http://www.bohemiancoding.com/sketch/ns"
	 xmlns="http://www.w3.org/2000/svg" xmlns:xlink="http://www.w3.org/1999/xlink" x="0px" y="0px" width="20px" height="17px"
	 viewBox="0 0 20 17" enable-background="new 0 0 20 17" xml:space="preserve">
<title>icon-mask</title>
<desc>Created with Sketch.</desc>
<g>
	<g>
		<path d="M10.837,2.921l4.669,4.669l-9.34,9.339h-4.67v-4.67L10.837,2.921z M5.57,15.494l1.022-1.021l-2.638-2.639l-1.021,1.021
			v1.201H4.37v1.438H5.57z M11.441,5.076c0-0.164-0.082-0.247-0.246-0.247c-0.074,0-0.139,0.026-0.191,0.079L4.92,10.992
			c-0.053,0.053-0.078,0.115-0.078,0.191c0,0.164,0.082,0.246,0.246,0.246c0.075,0,0.139-0.025,0.191-0.078l6.084-6.085
			C11.416,5.215,11.441,5.151,11.441,5.076z M18.503,3.999c0,0.396-0.138,0.733-0.415,1.01l-1.863,1.864l-4.67-4.67l1.863-1.852
			c0.27-0.285,0.605-0.427,1.01-0.427c0.397,0,0.737,0.142,1.021,0.427l2.639,2.626C18.365,3.269,18.503,3.609,18.503,3.999z"/>
	</g>
	<g>
		<path fill="#020302" d="M10.837,2.921l4.669,4.669l-9.34,9.339h-4.67v-4.67L10.837,2.921z M5.57,15.494l1.022-1.021l-2.638-2.639
			l-1.021,1.021v1.201H4.37v1.438H5.57z M11.441,5.076c0-0.164-0.082-0.247-0.246-0.247c-0.074,0-0.139,0.026-0.191,0.079
			L4.92,10.992c-0.053,0.053-0.078,0.115-0.078,0.191c0,0.164,0.082,0.246,0.246,0.246c0.075,0,0.139-0.025,0.191-0.078l6.084-6.085
			C11.416,5.215,11.441,5.151,11.441,5.076z M18.503,3.999c0,0.396-0.138,0.733-0.415,1.01l-1.863,1.864l-4.67-4.67l1.863-1.852
			c0.27-0.285,0.605-0.427,1.01-0.427c0.397,0,0.737,0.142,1.021,0.427l2.639,2.626C18.365,3.269,18.503,3.609,18.503,3.999z"/>
	</g>
</g>
</svg>
